<?xml version="1.0" standalone="no"?>
<!DOCTYPE svg PUBLIC "-//W3C//DTD SVG 20010904//EN"
 "http://www.w3.org/TR/2001/REC-SVG-20010904/DTD/svg10.dtd">
<svg version="1.0" xmlns="http://www.w3.org/2000/svg"
 width="2400.000000pt" height="2359.000000pt" viewBox="0 0 2400.000000 2359.000000"
 preserveAspectRatio="xMidYMid meet">
<metadata>
Created by potrace 1.15, written by Peter Selinger 2001-2017
</metadata>
<g transform="translate(0.000000,2359.000000) scale(0.100000,-0.100000)"
fill="#000000" stroke="none">
<path d="M11130 23584 c-30 -2 -129 -8 -220 -14 -2167 -139 -4258 -884 -6029
-2148 -555 -396 -963 -743 -1477 -1256 -409 -410 -646 -676 -971 -1093 -982
-1261 -1701 -2735 -2087 -4278 -174 -695 -265 -1280 -328 -2095 -18 -226 -17
-1245 0 -1480 60 -809 163 -1457 342 -2155 913 -3558 3497 -6502 6926 -7890
1951 -790 4098 -1037 6209 -714 1650 252 3247 869 4651 1795 2113 1396 3721
3444 4567 5819 606 1703 803 3559 571 5375 -215 1686 -799 3293 -1722 4745
-635 998 -1453 1925 -2382 2700 -536 446 -1164 877 -1795 1231 -77 43 -270
144 -430 224 -1259 635 -2615 1033 -4015 1180 -447 46 -566 52 -1170 55 -322
1 -610 1 -640 -1z m2305 -518 c1120 -175 2206 -513 3180 -990 l230 -112 918
-763 917 -763 -2 -1117 -3 -1116 -1860 -47 c-1023 -26 -1935 -47 -2027 -47
l-166 -1 -574 361 c-2191 1378 -3084 1942 -3094 1952 -11 12 31 332 166 1282
23 160 61 432 85 605 24 173 47 332 50 353 5 35 4 37 -22 38 -16 0 -23 3 -17
5 39 16 1900 392 1944 393 30 1 154 -14 275 -33z m-3077 -177 c279 -88 508
-161 509 -163 2 -1 -15 -131 -37 -288 -22 -157 -53 -390 -70 -519 -70 -533
-191 -1394 -198 -1400 -4 -4 -920 -550 -2037 -1214 l-2030 -1208 -1270 -27
c-698 -15 -1465 -31 -1703 -35 -428 -7 -432 -7 -432 13 0 11 22 311 50 667 27
356 50 649 50 651 0 14 338 369 561 589 534 527 1047 943 1674 1360 1128 750
2387 1292 3700 1593 230 53 655 138 708 141 10 0 246 -71 525 -160z m7912
-1792 c383 -276 845 -652 1095 -891 l60 -57 -75 52 c-106 74 -380 274 -545
398 -117 88 -878 711 -925 759 -22 21 244 -157 390 -261z m801 -3819 c179
-299 735 -1222 1235 -2053 566 -941 909 -1519 908 -1535 0 -14 -404 -966 -899
-2116 l-899 -2091 -485 -7 c-268 -4 -1078 -16 -1801 -26 -723 -11 -1370 -20
-1436 -20 l-121 0 -338 523 c-186 287 -777 1201 -1312 2030 l-974 1509 829
2111 830 2112 2023 51 c1113 28 2044 52 2069 53 l45 1 326 -542z m-12192
-1016 c647 -1893 901 -2644 901 -2662 0 -8 -520 -924 -1155 -2035 l-1156
-2020 -37 2 c-250 12 -3160 239 -3169 247 -6 6 -336 875 -733 1931 l-722 1920
11 45 c7 25 23 70 35 100 13 30 500 908 1084 1950 l1060 1895 319 8 c617 15
2839 64 2953 66 l115 1 494 -1448z m15985 -2649 c11 -53 55 -419 71 -583 71
-768 64 -1564 -21 -2320 -67 -603 -186 -1216 -345 -1775 -48 -170 -158 -525
-169 -544 -4 -8 -567 -231 -1251 -496 l-1244 -481 -103 863 -103 863 952 2222
c524 1223 953 2224 954 2225 1 2 304 32 470 46 22 2 207 4 412 5 l371 2 6 -27z
m-12494 -273 c1174 -38 2163 -70 2197 -70 l61 0 970 -1502 c904 -1401 1649
-2558 1665 -2585 6 -9 -882 -1463 -2296 -3759 l-50 -81 -741 -6 c-939 -9
-3284 -22 -3815 -22 l-405 0 -1113 1949 -1114 1950 1192 2085 c656 1147 1196
2092 1202 2099 5 7 32 12 61 12 28 0 1012 -32 2186 -70z m-9138 -1930 c403
-1070 737 -1949 743 -1955 9 -7 576 -3510 575 -3547 0 -7 -311 -111 -315 -105
-144 198 -444 715 -645 1112 -973 1922 -1362 4044 -1139 6225 11 107 22 211
26 230 6 33 6 33 15 10 5 -14 338 -900 740 -1970z m1868 -6143 c190 -156 935
-766 1655 -1357 721 -590 1331 -1092 1357 -1113 46 -39 49 -40 68 -22 18 16
20 16 42 -1 67 -54 528 -448 526 -450 -2 -1 -119 -47 -261 -102 l-257 -100
-118 65 c-1216 679 -2356 1646 -3252 2758 -151 187 -390 508 -384 514 8 8 246
89 264 90 8 0 170 -127 360 -282z m9920 -406 l88 -80 -41 -14 c-23 -8 -1189
-459 -2592 -1002 -1402 -543 -2718 -1052 -2923 -1131 l-373 -144 -247 207
c-136 114 -298 250 -360 302 -62 52 -111 98 -110 102 2 4 349 415 772 913
l770 906 800 1 c441 1 1238 5 1771 8 534 4 1282 8 1663 9 l693 2 89 -79z"/>
</g>
</svg>
